<svg width="391" height="375" viewBox="0 0 391 375" fill="none" xmlns="http://www.w3.org/2000/svg">
<g clip-path="url(#clip0_142_49)">
<path d="M391 115.572V156.891C391 160.562 387.997 163.538 384.293 163.538H336.417C332.713 163.538 329.71 160.562 329.71 156.891V115.572C329.71 111.901 332.713 108.925 336.417 108.925H384.293C387.997 108.925 391 111.901 391 115.572ZM54.581 108.925H6.70724C3.0033 108.925 0 111.901 0 115.572V368.352C0 372.023 3.0033 375 6.70724 375H54.5829C58.2869 375 61.2902 372.023 61.2902 368.352V115.572C61.2902 111.901 58.2869 108.925 54.5829 108.925H54.581ZM384.293 211.719H336.417C332.713 211.719 329.71 214.696 329.71 218.367V314.258H281.094V115.572C281.094 111.901 278.091 108.925 274.387 108.925H226.511C222.807 108.925 219.804 111.901 219.804 115.572V368.352C219.804 372.023 222.807 375 226.511 375H384.291C387.995 375 390.998 372.023 390.998 368.352V218.365C390.998 214.694 387.995 211.717 384.291 211.717L384.293 211.719ZM164.487 0H6.70724C3.0033 0 0 2.97655 0 6.64749V54.0967C0 57.7676 3.0033 60.7442 6.70724 60.7442H109.904V368.352C109.904 372.023 112.907 375 116.611 375H164.487C168.191 375 171.194 372.023 171.194 368.352V6.64749C171.194 2.97655 168.191 0 164.487 0ZM384.295 0H226.515C222.811 0 219.808 2.97655 219.808 6.64749V54.0967C219.808 57.7676 222.811 60.7442 226.515 60.7442H384.295C387.999 60.7442 391.002 57.7676 391.002 54.0967V6.64749C391.002 2.97655 387.999 0 384.295 0Z" fill="#B53746"/>
</g>
<defs>
<clipPath id="clip0_142_49">
<rect width="391" height="375" fill="white"/>
</clipPath>
</defs>
</svg>
