{
  "asset": {
    "generator": "Khronos glTF Blender I/O v4.0.44",
    "version": "2.0"
  },
  "scene": 0,
  "scenes": [
    {
      "name": "Scene",
      "nodes": [
        0
      ]
    }
  ],
  "nodes": [
    {
      "mesh": 0,
      "name": "Curve",
      "rotation": [
        0.7070415019989014,
        0.009480481036007404,
        0.009609500877559185,
        0.7070432305335999
      ],
      "translation": [
        0.020667800679802895,
        -0.01883159577846527,
        0.0005581218283623457
      ]
    }
  ],
  "materials": [
    {
      "doubleSided": true,
      "name": "SVGMat",
      "pbrMetallicRoughness": {
        "baseColorFactor": [
          0.8713670969009399,
          0.026241222396492958,
          0.0423114113509655,
          1
        ],
        "metallicFactor": 0,
        "roughnessFactor": 0.4000000059604645
      }
    }
  ],
  "meshes": [
    {
      "name": "Curve",
      "primitives": [
        {
          "attributes": {
            "POSITION": 0,
            "NORMAL": 1,
            "TEXCOORD_0": 2
          },
          "indices": 3,
          "material": 0
        }
      ]
    }
  ],
  "accessors": [
    {
      "bufferView": 0,
      "componentType": 5126,
      "count": 7304,
      "max": [
        0.024476300925016403,
        0.0020000000949949026,
        0.018827827647328377
      ],
      "min": [
        -0.020678646862506866,
        -0.0020000000949949026,
        -0.026319103315472603
      ],
      "type": "VEC3"
    },
    {
      "bufferView": 1,
      "componentType": 5126,
      "count": 7304,
      "type": "VEC3"
    },
    {
      "bufferView": 2,
      "componentType": 5126,
      "count": 7304,
      "type": "VEC2"
    },
    {
      "bufferView": 3,
      "componentType": 5123,
      "count": 21912,
      "type": "SCALAR"
    }
  ],
  "bufferViews": [
    {
      "buffer": 0,
      "byteLength": 87648,
      "byteOffset": 0,
      "target": 34962
    },
    {
      "buffer": 0,
      "byteLength": 87648,
      "byteOffset": 87648,
      "target": 34962
    },
    {
      "buffer": 0,
      "byteLength": 58432,
      "byteOffset": 175296,
      "target": 34962
    },
    {
      "buffer": 0,
      "byteLength": 43824,
      "byteOffset": 233728,
      "target": 34963
    }
  ],
  "buffers": [
    {
      "uri": "gbz_logo_data.bin",
      "byteLength": 277552
    }
  ]
}